The Hunger Games 2012 V2 TS XViD NEW SOURCE DTRG

Format                                   : AVI
Format/Info                              : Audio Video Interleave
File size                                : 1.53 GiB
Duration                                 : 2h 13mn
Overall bit rate                         : 1 644 Kbps
Writing library                          : VirtualDubMod build 2540/release

Video
ID                                       : 0
Format                                   : MPEG-4 Visual
Format profile                           : Advanced Simple@L5
Format settings, BVOP                    : 2
Format settings, QPel                    : No
Format settings, GMC                     : No warppoints
Format settings, Matrix                  : Default (H.263)
Muxing mode                              : Packed bitstream
Codec ID                                 : XVID
Codec ID/Hint                            : XviD
Duration                                 : 2h 13mn
Bit rate                                 : 1 507 Kbps
Width                                    : 640 pixels
Height                                   : 272 pixels
Display aspect ratio                     : 2.35:1
Frame rate                               : 25.000 fps
Color space                              : YUV
Chroma subsampling                       : 4:2:0
Bit depth                                : 8 bits
Scan type                                : Progressive
Compression mode                         : Lossy
Bits/(Pixel*Frame)                       : 0.346
Stream size                              : 1.40 GiB (92%)
Writing library                          : XviD 64

Audio
ID                                       : 1
Format                                   : MPEG Audio
Format version                           : Version 1
Format profile                           : Layer 3
Mode                                     : Joint stereo
Mode extension                           : MS Stereo
Codec ID                                 : 55
Codec ID/Hint                            : MP3
Duration                                 : 2h 13mn
Bit rate mode                            : Constant
Bit rate                                 : 128 Kbps
Channel(s)                               : 2 channels
Sampling rate                            : 44.1 KHz
Compression mode                         : Lossy
Delay relative to video                  : 5ms
Stream size                              : 122 MiB (8%)
Alignment                                : Split accross interleaves
Interleave, duration                     : 40 ms (1.00 video frame)
Interleave, preload duration             : 500 ms

 
http://www.imdb.com/title/tt1392170/

Set in a future where the Capitol selects a boy and girl from the twelve districts to fight to the death on live television, Katniss Everdeen volunteers to take her younger sister's place for the latest match.


Source Used:


Video ......... Az.ehezok.viadala.2012.CAM.SUBBED.XviD-BEOWULF ...Thanks

Audio....................ILLUMINATI.....................Thanks


Poster:

 
http://i.imgur.com/SJy9a.jpg


Screenshots:

 
http://i.imgur.com/Kcmht.png

 
http://i.imgur.com/CTksr.png

 
http://i.imgur.com/d3Odf.png


ENJOY!